<svg width="46" height="43" viewBox="0 0 46 43" fill="var(--e-global-color-primary)" xmlns="http://www.w3.org/2000/svg">
<path d="M45.5 20.5C45.5 31.3731 35.4256 40.1875 23 40.1875C20.7715 40.1905 18.5523 39.9012 16.3991 39.3269C14.7566 40.1594 10.985 41.7569 4.64 42.7975C4.0775 42.8875 3.65 42.3025 3.87219 41.7794C4.86781 39.4281 5.76781 36.295 6.03781 33.4375C2.5925 29.9781 0.5 25.45 0.5 20.5C0.5 9.62688 10.5744 0.8125 23 0.8125C35.4256 0.8125 45.5 9.62688 45.5 20.5ZM14.5625 20.5C14.5625 19.7541 14.2662 19.0387 13.7387 18.5113C13.2113 17.9838 12.4959 17.6875 11.75 17.6875C11.0041 17.6875 10.2887 17.9838 9.76126 18.5113C9.23382 19.0387 8.9375 19.7541 8.9375 20.5C8.9375 21.2459 9.23382 21.9613 9.76126 22.4887C10.2887 23.0162 11.0041 23.3125 11.75 23.3125C12.4959 23.3125 13.2113 23.0162 13.7387 22.4887C14.2662 21.9613 14.5625 21.2459 14.5625 20.5V20.5ZM25.8125 20.5C25.8125 19.7541 25.5162 19.0387 24.9887 18.5113C24.4613 17.9838 23.7459 17.6875 23 17.6875C22.2541 17.6875 21.5387 17.9838 21.0113 18.5113C20.4838 19.0387 20.1875 19.7541 20.1875 20.5C20.1875 21.2459 20.4838 21.9613 21.0113 22.4887C21.5387 23.0162 22.2541 23.3125 23 23.3125C23.7459 23.3125 24.4613 23.0162 24.9887 22.4887C25.5162 21.9613 25.8125 21.2459 25.8125 20.5V20.5ZM34.25 23.3125C34.9959 23.3125 35.7113 23.0162 36.2387 22.4887C36.7662 21.9613 37.0625 21.2459 37.0625 20.5C37.0625 19.7541 36.7662 19.0387 36.2387 18.5113C35.7113 17.9838 34.9959 17.6875 34.25 17.6875C33.5041 17.6875 32.7887 17.9838 32.2613 18.5113C31.7338 19.0387 31.4375 19.7541 31.4375 20.5C31.4375 21.2459 31.7338 21.9613 32.2613 22.4887C32.7887 23.0162 33.5041 23.3125 34.25 23.3125V23.3125Z" fill="#104E9F"/>
</svg>
