<svg width="20" height="21" viewBox="0 0 20 21" fill="none" xmlns="http://www.w3.org/2000/svg">
<path d="M20 9.87629C20 15.0547 15.5225 19.2526 10 19.2526C9.00956 19.254 8.02323 19.1162 7.06625 18.8427C6.33625 19.2392 4.66 20 1.84 20.4956C1.59 20.5385 1.4 20.2599 1.49875 20.0107C1.94125 18.8909 2.34125 17.3987 2.46125 16.0378C0.93 14.3903 0 12.2338 0 9.87629C0 4.6979 4.4775 0.5 10 0.5C15.5225 0.5 20 4.6979 20 9.87629ZM6.25 9.87629C6.25 9.52104 6.1183 9.18034 5.88388 8.92914C5.64946 8.67794 5.33152 8.53682 5 8.53682C4.66848 8.53682 4.35054 8.67794 4.11612 8.92914C3.8817 9.18034 3.75 9.52104 3.75 9.87629C3.75 10.2315 3.8817 10.5722 4.11612 10.8234C4.35054 11.0746 4.66848 11.2158 5 11.2158C5.33152 11.2158 5.64946 11.0746 5.88388 10.8234C6.1183 10.5722 6.25 10.2315 6.25 9.87629V9.87629ZM11.25 9.87629C11.25 9.52104 11.1183 9.18034 10.8839 8.92914C10.6495 8.67794 10.3315 8.53682 10 8.53682C9.66848 8.53682 9.35054 8.67794 9.11612 8.92914C8.8817 9.18034 8.75 9.52104 8.75 9.87629C8.75 10.2315 8.8817 10.5722 9.11612 10.8234C9.35054 11.0746 9.66848 11.2158 10 11.2158C10.3315 11.2158 10.6495 11.0746 10.8839 10.8234C11.1183 10.5722 11.25 10.2315 11.25 9.87629V9.87629ZM15 11.2158C15.3315 11.2158 15.6495 11.0746 15.8839 10.8234C16.1183 10.5722 16.25 10.2315 16.25 9.87629C16.25 9.52104 16.1183 9.18034 15.8839 8.92914C15.6495 8.67794 15.3315 8.53682 15 8.53682C14.6685 8.53682 14.3505 8.67794 14.1161 8.92914C13.8817 9.18034 13.75 9.52104 13.75 9.87629C13.75 10.2315 13.8817 10.5722 14.1161 10.8234C14.3505 11.0746 14.6685 11.2158 15 11.2158V11.2158Z" fill="white"/>
</svg>
