<svg width="22" height="17" viewBox="0 0 22 17" fill="none" xmlns="http://www.w3.org/2000/svg">
<path d="M20.2667 0.503605C20.1759 0.494241 20.0843 0.494241 19.9934 0.503605H1.32672C1.20708 0.505448 1.08824 0.523387 0.973389 0.556938L10.6067 10.1503L20.2667 0.503605Z" fill="white"/>
<path d="M21.2533 1.43018L11.5467 11.0968C11.2969 11.3452 10.9589 11.4846 10.6067 11.4846C10.2544 11.4846 9.91648 11.3452 9.66667 11.0968L0.0466667 1.50351C0.017093 1.6122 0.00141246 1.72421 0 1.83684V15.1702C0 15.5238 0.140476 15.8629 0.390524 16.113C0.640573 16.363 0.979711 16.5035 1.33333 16.5035H20C20.3536 16.5035 20.6928 16.363 20.9428 16.113C21.1929 15.8629 21.3333 15.5238 21.3333 15.1702V1.83684C21.328 1.69795 21.301 1.56073 21.2533 1.43018ZM2.24667 15.1702H1.32V14.2168L6.16667 9.41018L7.10667 10.3502L2.24667 15.1702ZM19.9867 15.1702H19.0533L14.1933 10.3502L15.1333 9.41018L19.98 14.2168L19.9867 15.1702Z" fill="white"/>
</svg>
