<svg width="46" height="45" viewBox="0 0 46 45" fill="none" xmlns="http://www.w3.org/2000/svg">
<g clip-path="url(#clip0_633_6250)">
<path d="M45.5 22.5C45.5 33.3731 35.4256 42.1875 23 42.1875C20.7715 42.1905 18.5523 41.9012 16.3991 41.3269C14.7566 42.1594 10.985 43.7569 4.64 44.7975C4.0775 44.8875 3.65 44.3025 3.87219 43.7794C4.86781 41.4281 5.76781 38.295 6.03781 35.4375C2.5925 31.9781 0.5 27.45 0.5 22.5C0.5 11.6269 10.5744 2.8125 23 2.8125C35.4256 2.8125 45.5 11.6269 45.5 22.5ZM14.5625 22.5C14.5625 21.7541 14.2662 21.0387 13.7387 20.5113C13.2113 19.9838 12.4959 19.6875 11.75 19.6875C11.0041 19.6875 10.2887 19.9838 9.76126 20.5113C9.23382 21.0387 8.9375 21.7541 8.9375 22.5C8.9375 23.2459 9.23382 23.9613 9.76126 24.4887C10.2887 25.0162 11.0041 25.3125 11.75 25.3125C12.4959 25.3125 13.2113 25.0162 13.7387 24.4887C14.2662 23.9613 14.5625 23.2459 14.5625 22.5V22.5ZM25.8125 22.5C25.8125 21.7541 25.5162 21.0387 24.9887 20.5113C24.4613 19.9838 23.7459 19.6875 23 19.6875C22.2541 19.6875 21.5387 19.9838 21.0113 20.5113C20.4838 21.0387 20.1875 21.7541 20.1875 22.5C20.1875 23.2459 20.4838 23.9613 21.0113 24.4887C21.5387 25.0162 22.2541 25.3125 23 25.3125C23.7459 25.3125 24.4613 25.0162 24.9887 24.4887C25.5162 23.9613 25.8125 23.2459 25.8125 22.5V22.5ZM34.25 25.3125C34.9959 25.3125 35.7113 25.0162 36.2387 24.4887C36.7662 23.9613 37.0625 23.2459 37.0625 22.5C37.0625 21.7541 36.7662 21.0387 36.2387 20.5113C35.7113 19.9838 34.9959 19.6875 34.25 19.6875C33.5041 19.6875 32.7887 19.9838 32.2613 20.5113C31.7338 21.0387 31.4375 21.7541 31.4375 22.5C31.4375 23.2459 31.7338 23.9613 32.2613 24.4887C32.7887 25.0162 33.5041 25.3125 34.25 25.3125V25.3125Z" fill="#104E9F"/>
</g>
<defs>
<clipPath id="clip0_633_6250">
<rect width="45" height="45" fill="white" transform="translate(0.5)"/>
</clipPath>
</defs>
</svg>
