<svg xmlns:dc="http://purl.org/dc/elements/1.1/" xmlns:cc="http://creativecommons.org/ns#" xmlns:rdf="http://www.w3.org/1999/02/22-rdf-syntax-ns#" xmlns:svg="http://www.w3.org/2000/svg" xmlns="http://www.w3.org/2000/svg" xmlns:sodipodi="http://sodipodi.sourceforge.net/DTD/sodipodi-0.dtd" xmlns:inkscape="http://www.inkscape.org/namespaces/inkscape" id="svg2" xml:space="preserve" width="791.77332" height="127.42667" viewBox="0 0 791.77332 127.42667" sodipodi:docname="sailspecials_liggend_wit.eps"><metadata></metadata><defs id="defs6"></defs><g id="g10" inkscape:groupmode="layer" inkscape:label="ink_ext_XXXXXX" transform="matrix(1.3333333,0,0,-1.3333333,0,127.42667)"><g id="g12" transform="scale(0.1)"><path d="m 1300.68,586.34 c -7.48,-6.156 -11.23,-14.305 -11.23,-24.449 0,-10.149 4.57,-18.211 13.72,-24.2 9.15,-5.988 30.27,-13.058 63.37,-21.207 33.1,-8.156 58.8,-20.379 77.1,-36.675 18.28,-16.297 27.44,-40.086 27.44,-71.352 0,-31.269 -11.72,-56.637 -35.18,-76.098 -23.45,-19.457 -54.31,-29.183 -92.56,-29.183 -55.22,0 -104.95,20.457 -149.19,61.371 l 46.4,56.883 c 37.59,-32.93 72.36,-49.399 104.29,-49.399 14.3,0 25.53,3.074 33.68,9.235 8.15,6.148 12.23,14.468 12.23,24.945 0,10.477 -4.33,18.789 -12.98,24.949 -8.65,6.153 -25.78,12.391 -51.39,18.711 -40.59,9.645 -70.28,22.203 -89.07,37.672 -18.8,15.469 -28.19,39.746 -28.19,72.852 0,33.097 11.89,58.628 35.67,76.589 23.78,17.961 53.47,26.95 89.07,26.95 23.28,0 46.57,-3.993 69.86,-11.981 23.28,-7.98 43.57,-19.297 60.87,-33.93 l -39.42,-56.882 c -30.27,22.957 -61.54,34.429 -93.81,34.429 -12.97,0 -23.2,-3.078 -30.68,-9.23" style="fill:#ffffff;fill-opacity:1;fill-rule:nonzero;stroke:none" id="path14"></path><path d="m 1786.92,552.16 -43.9,-101.289 h 87.32 z m 105.29,-244.996 -32.43,75.344 h -146.2 l -32.43,-75.344 h -82.84 L 1749,655.945 h 75.35 l 150.69,-348.781 h -82.83" style="fill:#ffffff;fill-opacity:1;fill-rule:nonzero;stroke:none" id="path16"></path><path d="m 2125.73,655.945 h 77.84 V 307.164 h -77.84 v 348.781" style="fill:#ffffff;fill-opacity:1;fill-rule:nonzero;stroke:none" id="path18"></path><path d="m 2399.65,307.164 v 348.781 h 77.84 V 376.52 h 148.7 v -69.356 h -226.54" style="fill:#ffffff;fill-opacity:1;fill-rule:nonzero;stroke:none" id="path20"></path><path d="m 3025.77,403.578 c 0,29.266 -8.71,51.613 -25.88,66.43 -17.75,15.305 -44.74,27.414 -80.2,36 -37.43,9.043 -61.39,17.371 -73.24,25.453 -12.69,8.656 -19.13,21.269 -19.13,37.488 0,16.289 6.49,28.684 19.27,36.824 12.01,7.637 27.44,11.516 45.87,11.516 17.96,0 36.43,-3.176 54.89,-9.437 16.12,-5.477 29.55,-12.407 40.02,-20.645 l 25.79,36.449 c -14.9,11.614 -32.52,20.852 -52.43,27.492 -21.75,7.247 -43.95,10.918 -65.98,10.918 -33.95,0 -62.74,-8.628 -85.6,-25.652 -22.69,-16.894 -33.73,-40.379 -33.73,-71.785 0,-31.438 9.63,-54.012 29.44,-69.016 10.14,-8.195 21.82,-14.847 34.83,-19.886 13.28,-5.153 33.07,-10.903 58.85,-17.086 27.06,-6.512 45.73,-13.614 57.06,-21.711 12.12,-8.66 18.27,-20.907 18.27,-36.403 0,-15.472 -6.47,-28.054 -19.23,-37.39 -12.25,-8.957 -28.81,-13.496 -49.21,-13.496 -38.33,0 -75.74,14.996 -111.29,44.582 l -30.86,-37.118 c 40.98,-35.007 88.26,-52.75 140.63,-52.75 36.53,0 66.38,9.344 88.69,27.782 22.32,18.441 33.17,41.808 33.17,71.441" style="fill:#ffffff;fill-opacity:1;fill-rule:nonzero;stroke:none" id="path22"></path><path d="m 3408.73,477.25 c -13.22,-13.965 -36.71,-20.754 -71.8,-20.754 h -75.06 V 609.66 h 66.4 c 33.96,0 58.4,-5.285 74.71,-16.164 16.77,-11.183 25.28,-30.226 25.28,-56.601 0,-25.883 -6.57,-45.954 -19.53,-59.645 z m 70.41,54.813 c 0,41.21 -11.85,72.019 -35.23,91.554 -23.66,19.774 -62.22,29.797 -114.62,29.797 H 3212.51 V 308.426 h 49.36 v 104.312 h 68.44 c 50.76,0 88.77,9.711 112.95,28.867 23.81,18.852 35.88,49.29 35.88,90.458" style="fill:#ffffff;fill-opacity:1;fill-rule:nonzero;stroke:none" id="path24"></path><path d="m 3711.67,460.063 h 170.47 v 42.742 h -170.47 v 104.82 h 189.81 v 45.789 H 3662.32 V 308.426 h 245.26 v 45.793 h -195.91 v 105.844" style="fill:#ffffff;fill-opacity:1;fill-rule:nonzero;stroke:none" id="path26"></path><path d="m 4313.7,603.633 c 14.42,-6.168 29.78,-16.719 45.7,-31.403 l 31.19,34.09 c -35.22,36.996 -79.23,55.746 -130.9,55.746 -53.41,0 -98.2,-17.293 -133.13,-51.398 -34.9,-34.074 -52.59,-77.305 -52.59,-128.473 0,-51.183 17.34,-94.066 51.56,-127.457 34.26,-33.433 78.03,-50.383 130.09,-50.383 50.34,0 93.97,19.223 129.78,57.145 l -31.52,32.344 c -15.29,-13.809 -30.19,-24.129 -44.35,-30.727 -15.57,-7.254 -34.31,-10.933 -55.68,-10.933 -34.57,0 -64.86,12.769 -90.04,37.949 -25.18,25.172 -37.94,56.918 -37.94,94.347 0,37.469 12.89,68.731 38.3,92.922 25.34,24.11 57.05,36.328 94.25,36.328 20.97,0 39.56,-3.394 55.28,-10.097" style="fill:#ffffff;fill-opacity:1;fill-rule:nonzero;stroke:none" id="path28"></path><path d="m 4622.49,653.414 h -49.36 V 308.426 h 49.36 v 344.988" style="fill:#ffffff;fill-opacity:1;fill-rule:nonzero;stroke:none" id="path30"></path><path d="m 4894.92,434.105 72.82,165.133 72.81,-165.133 z m 44.24,219.309 -152.01,-344.988 h 52.43 l 35.62,80.906 h 185.06 l 35.62,-80.906 h 52.44 L 4996.3,653.414 h -57.14" style="fill:#ffffff;fill-opacity:1;fill-rule:nonzero;stroke:none" id="path32"></path><path d="m 5362.33,653.414 h -49.36 V 308.426 h 211.68 v 46.301 h -162.32 v 298.687" style="fill:#ffffff;fill-opacity:1;fill-rule:nonzero;stroke:none" id="path34"></path><path d="m 5938.34,403.578 c 0,29.266 -8.71,51.613 -25.87,66.43 -17.77,15.305 -44.74,27.414 -80.2,36 -37.43,9.043 -61.39,17.371 -73.25,25.453 -12.69,8.66 -19.13,21.273 -19.13,37.488 0,16.289 6.48,28.68 19.27,36.824 12.01,7.637 27.44,11.516 45.86,11.516 17.97,0 36.45,-3.176 54.9,-9.437 16.11,-5.477 29.54,-12.407 40.02,-20.645 l 25.8,36.449 c -14.92,11.621 -32.54,20.856 -52.44,27.492 -21.75,7.247 -43.95,10.918 -65.98,10.918 -33.95,0 -62.74,-8.628 -85.6,-25.652 -22.7,-16.902 -33.73,-40.379 -33.73,-71.785 0,-31.426 9.63,-54.004 29.43,-69.016 10.15,-8.183 21.82,-14.84 34.84,-19.886 13.29,-5.157 33.09,-10.903 58.85,-17.086 27.07,-6.512 45.74,-13.614 57.07,-21.711 12.11,-8.664 18.26,-20.91 18.26,-36.403 0,-15.476 -6.47,-28.058 -19.24,-37.394 -12.24,-8.953 -28.79,-13.492 -49.19,-13.492 -38.34,0 -75.75,14.996 -111.3,44.582 l -30.87,-37.118 c 40.99,-35.007 88.27,-52.75 140.63,-52.75 36.54,0 66.38,9.344 88.7,27.782 22.31,18.437 33.17,41.804 33.17,71.441" style="fill:#ffffff;fill-opacity:1;fill-rule:nonzero;stroke:none" id="path36"></path><path d="m 740.547,477.563 c -0.875,-10.372 -2.715,-20.52 -5.481,-30.176 -0.589,-2.082 -1.226,-4.16 -1.82,-5.934 l -0.57,-1.605 c -0.582,-1.676 -1.184,-3.344 -1.832,-5.016 l -0.903,-2.215 c -0.539,-1.32 -1.086,-2.648 -1.628,-3.871 l -1.083,-2.351 c -0.613,-1.297 -1.191,-2.512 -1.8,-3.719 l -1.203,-2.332 c -0.625,-1.176 -1.27,-2.348 -1.926,-3.508 l -1.274,-2.231 c -0.718,-1.21 -1.468,-2.414 -2.261,-3.656 l -1.254,-1.965 c -0.91,-1.382 -1.867,-2.757 -2.957,-4.269 l -0.668,-0.965 c -1.309,-1.785 -2.645,-3.52 -3.789,-4.934 l -1.157,-1.375 c -1.089,-1.316 -2.191,-2.605 -3.16,-3.703 l -1.695,-1.832 c -0.941,-1.023 -1.906,-2.047 -2.848,-3 l -1.687,-1.676 c -1.071,-1.05 -2.047,-1.988 -3.145,-2.988 l -1.84,-1.676 c -1.015,-0.902 -2.058,-1.793 -3.531,-3.027 l -1.527,-1.262 c -1.11,-0.898 -2.274,-1.797 -3.438,-2.672 l -1.812,-1.367 c -1.492,-1.109 -3.035,-2.172 -4.781,-3.355 l -0.614,-0.434 c -1.902,-1.261 -3.804,-2.461 -5.504,-3.484 l -1.828,-1.059 c -1.429,-0.836 -2.871,-1.668 -4.133,-2.351 l -2.41,-1.262 c -1.289,-0.676 -2.582,-1.34 -3.937,-2 l -2.446,-1.152 c -1.328,-0.621 -2.675,-1.223 -3.917,-1.774 l -2.559,-1.086 c -1.387,-0.57 -2.77,-1.121 -4.133,-1.644 l -2.574,-0.985 c -1.516,-0.55 -3.059,-1.07 -4.645,-1.605 l -2.179,-0.746 c -2.114,-0.672 -4.223,-1.301 -6.61,-1.973 l -0.429,-0.133 c -2.414,-0.672 -4.836,-1.281 -6.965,-1.789 l -2.555,-0.554 c -1.695,-0.387 -3.414,-0.75 -4.949,-1.059 l -3.043,-0.559 c -1.602,-0.285 -3.203,-0.562 -4.734,-0.808 l -3.184,-0.465 c -1.555,-0.219 -3.137,-0.426 -4.707,-0.617 l -3.242,-0.36 c -1.617,-0.171 -3.258,-0.32 -4.864,-0.453 l -3.207,-0.246 c -1.824,-0.133 -3.668,-0.219 -5.496,-0.305 l -2.656,-0.117 c -2.777,-0.093 -5.559,-0.152 -8.379,-0.152 -40.195,0 -82.269,14.418 -113.797,30.547 3.801,3.988 8.832,9.523 13.391,15.383 5.672,7.293 10.512,14.179 13.234,18.14 5.137,-2.386 10.485,-4.73 16.18,-6.945 5.805,-2.266 11.019,-4.125 16,-5.715 1.836,-0.574 3.668,-1.141 5.469,-1.668 4.597,-1.34 8.742,-2.437 12.715,-3.359 17.078,-3.938 32.46,-5.008 46.488,-4.352 l 6.59,0.301 0.121,0.117 c 1.461,0.121 2.933,0.254 4.441,0.414 l 1.469,0.164 c 2.836,0.328 5.648,0.707 8.957,1.239 3.074,0.507 5.91,1.086 8.746,1.726 l 1.715,0.391 c 2.703,0.644 5.367,1.347 8.297,2.219 l 0.894,0.285 c 2.446,0.75 4.871,1.574 7.176,2.429 l 0.738,0.274 c 2.848,1.086 5.274,2.113 7.715,3.234 l 1.375,0.641 c 2.406,1.14 4.727,2.316 6.856,3.523 l 0.746,0.434 c 2.16,1.23 4.203,2.5 6.07,3.738 l 1.145,0.75 c 2.023,1.375 4.011,2.852 6.144,4.531 l 1.047,0.86 c 2.152,1.765 4,3.386 5.66,4.98 1.926,1.867 3.535,3.563 5.074,5.289 l 1.004,1.129 c 1.242,1.426 2.426,2.914 3.633,4.496 l 5.945,8.696 c 2.454,3.265 3.911,6.961 4.911,9.527 0.777,1.691 1.539,3.387 2.25,5.219 3.695,9.66 6.027,20.007 6.933,30.75 0.219,2.511 0.301,5.035 0.254,7.558 -0.004,0.157 -0.027,0.313 -0.031,0.469 -0.121,4.895 -0.707,9.789 -1.781,14.605 -0.555,2.5 -1.239,4.985 -2.047,7.446 l -0.344,1.101 c -0.141,0.477 -0.285,0.961 -0.367,1.188 l -0.399,1.109 c -0.996,2.629 -2,4.914 -3.16,7.281 l -0.558,1.122 c -1.122,2.195 -2.372,4.378 -3.68,6.449 l -1.621,2.433 c -0.067,0.098 -0.125,0.176 -0.196,0.274 l -3.824,5.703 c 0,0 -3.933,4.062 -5.586,5.734 -18.082,18.313 -42.5,27.993 -70.609,27.993 -2.891,0 -5.852,-0.11 -8.723,-0.321 -2.695,-0.187 -5.328,-0.492 -7.929,-0.851 l -1.137,-0.157 c -4.692,-0.695 -9.254,-1.785 -13.75,-3.07 -4.215,1.445 -14.32,5.184 -27.145,11.754 -11.668,5.977 -17.882,10.43 -20.699,12.684 1.164,0.718 2.344,1.437 3.41,2.058 l 1.992,1.129 c 1.391,0.785 2.825,1.543 4.188,2.246 l 2.02,1.031 c 1.425,0.707 2.886,1.379 4.296,2.024 l 2.071,0.945 c 1.41,0.61 2.859,1.188 4.312,1.766 l 2.219,0.89 c 1.187,0.446 2.406,0.856 3.746,1.309 l 3.051,1.051 c 1,0.332 2.031,0.617 3.191,0.949 l 6.567,1.766 c 2.98,0.73 6.004,1.375 8.961,1.922 3.066,0.562 6.195,1.042 9.761,1.492 2.59,0.304 5.176,0.55 7.793,0.746 1.012,0.07 2.008,0.105 3.016,0.144 l 1.406,0.059 c 41.789,1.859 80.442,-12.578 107.719,-40.188 1.445,-1.464 2.828,-2.953 4.058,-4.332 l 1.356,-1.539 c 0.969,-1.117 1.891,-2.218 2.707,-3.215 l 1.391,-1.738 c 0.902,-1.152 1.781,-2.308 2.738,-3.629 l 0.926,-1.254 c 1.152,-1.621 2.261,-3.261 3.148,-4.652 l 0.895,-1.441 c 0.82,-1.321 1.617,-2.645 2.289,-3.805 l 0.937,-1.668 c 0.781,-1.434 1.442,-2.676 2.051,-3.867 l 0.906,-1.785 c 0.754,-1.555 1.481,-3.118 2.219,-4.789 l 0.27,-0.59 c 0.785,-1.828 1.507,-3.657 2.085,-5.196 l 0.711,-2 c 0.465,-1.296 0.922,-2.644 1.317,-3.851 l 0.617,-2.027 c 0.41,-1.368 0.805,-2.762 1.168,-4.161 l 0.414,-1.558 c 0.465,-1.887 0.895,-3.801 1.254,-5.649 l 1.469,-9.914 c 0.843,-7.699 0.949,-15.34 0.324,-22.718 z M 455.156,431.801 c -11.179,-17.254 -22.207,-31.188 -33.769,-42.645 l -2.418,-2.343 -0.789,-0.75 -6.496,-5.829 c -0.641,-0.543 -1.286,-1.074 -1.969,-1.625 L 391.41,365.621 c -0.66,-0.398 -1.344,-0.781 -2.082,-1.199 l -3.379,-1.914 c -0.765,-0.418 -1.554,-0.824 -2.386,-1.242 l -9.411,-4.473 c -0.832,-0.359 -1.668,-0.691 -2.632,-1.063 l -3.54,-1.406 c -0.882,-0.332 -1.785,-0.64 -2.761,-0.972 l -3.715,-1.27 c -0.949,-0.305 -1.918,-0.574 -3.027,-0.894 l -3.61,-1.055 c -1.156,-0.309 -2.316,-0.578 -3.539,-0.863 l -3.461,-0.825 c -1.375,-0.293 -2.769,-0.55 -4.277,-0.824 l -3.016,-0.57 c -1.98,-0.332 -4.035,-0.606 -6.269,-0.899 l -1.242,-0.172 c -2.567,-0.312 -5.168,-0.566 -7.489,-0.738 l -0.73,-0.031 c -3.09,-0.219 -6.223,-0.32 -9.742,-0.348 l -1.364,-0.05 -2.785,0.07 c -0.961,0.015 -1.937,0.027 -2.844,0.062 -1.679,0.067 -3.32,0.164 -4.906,0.27 l -2.719,0.187 c -1.781,0.161 -3.546,0.36 -5.351,0.578 L 293,346.234 c -2.207,0.297 -4.383,0.657 -6.867,1.102 l -0.473,0.07 c -4.957,0.934 -9.91,2.129 -14.375,3.449 l -1.629,0.52 c -1.926,0.586 -3.832,1.207 -5.39,1.754 L 262,353.973 c -1.637,0.597 -3.258,1.218 -4.645,1.793 l -2.378,1.019 c -1.512,0.66 -3.016,1.324 -4.45,2.008 l -2.351,1.156 c -1.375,0.684 -2.75,1.395 -4.117,2.141 l -2.379,1.312 c -1.328,0.754 -2.629,1.536 -4.266,2.532 l -1.914,1.191 c -1.254,0.816 -2.504,1.66 -3.887,2.617 l -2.125,1.473 c -1.215,0.883 -2.422,1.805 -3.808,2.89 l -1.91,1.469 c -1.293,1.047 -2.543,2.129 -3.918,3.332 l -1.594,1.383 c -1.762,1.594 -3.488,3.234 -5.137,4.902 -1.453,1.473 -2.867,2.989 -4.058,4.313 l -1.446,1.672 c -0.937,1.078 -1.847,2.152 -2.812,3.34 l -1.348,1.687 c -0.828,1.059 -1.652,2.152 -2.484,3.301 l -1.141,1.562 c -1.098,1.547 -2.168,3.118 -3.297,4.875 l -0.219,0.348 c -1.089,1.719 -2.031,3.313 -2.824,4.695 l -1.054,1.926 c -0.653,1.184 -1.309,2.399 -1.879,3.539 l -0.996,1.996 c -0.606,1.246 -1.184,2.508 -1.766,3.817 l -0.738,1.656 c -0.008,0.016 -0.016,0.035 -0.024,0.055 6.153,-1 15.254,-2.371 25.906,-3.586 12.68,-1.449 22.196,-2.414 27.317,-2.918 0.851,-0.953 1.758,-2.067 2.578,-2.899 18.086,-18.304 42.5,-27.984 70.602,-27.984 2.898,0 5.851,0.105 8.781,0.324 2.75,0.199 5.394,0.504 8.004,0.863 l 1.687,0.243 c 2.52,0.382 4.977,0.828 7.688,1.433 l 0.882,0.211 c 2.153,0.5 4.286,1.07 6.344,1.676 l 1.274,0.379 c 2.273,0.711 4.492,1.488 6.816,2.39 l 0.992,0.399 c 0.207,0.086 0.379,0.164 0.586,0.246 l 0.442,-0.152 6.418,3.222 c 1.668,0.836 3.539,1.852 5.453,2.953 l 1.168,0.684 c 1.949,1.156 3.851,2.359 5.558,3.527 l 0.848,0.586 c 1.719,1.203 3.387,2.426 5.012,3.7 l 1.394,1.101 c 7.621,6.133 14.785,13.477 22.078,22.621 5.274,6.613 10.614,14.145 16.25,22.981 1.535,2.418 3.063,4.898 4.598,7.406 0,0 11.195,18.918 11.977,20.262 l 8.843,15.148 c 3.852,-3.246 9.524,-7.719 16.403,-12.156 8.671,-5.598 15.218,-9.039 18.621,-10.723 -0.305,-0.519 -0.614,-1.047 -0.914,-1.57 l -11.301,-19.395 -4.723,-7.953 c -1.097,-1.832 -2.219,-3.687 -3.476,-5.73 l -1.039,-1.684 c -1.438,-2.301 -2.899,-4.633 -4.348,-6.867 z M 333.367,574.316 c -61.082,-2.457 -88.765,-36.961 -88.765,-36.961 0,0 -10.825,1.704 -22.059,3.465 -11.238,1.77 -24.648,3.551 -24.648,3.551 0,0 8.593,15.07 21.597,27.43 13,12.359 32.262,26.164 58.078,34.289 25.813,8.125 61.5,11.937 87.825,9.047 26.324,-2.887 60.511,-12.52 91.168,-27.446 30.66,-14.925 41.386,-25.687 54.628,-33.812 18.832,-11.559 39.59,-20.602 64.629,-28.145 25.043,-7.543 79.621,-18.074 79.621,-18.074 0,0 3.524,-7.605 3.606,-21.371 0.082,-13.758 -3.981,-20.961 -3.981,-20.961 0,0 -39.597,6.477 -68.812,13.86 -29.211,7.382 -73.352,23.753 -98.231,38.843 -26.902,16.313 -36.273,26.16 -59.871,36.594 -30.152,13.336 -60.429,21.074 -94.785,19.691 z M 770.68,449.629 c 0.136,0.633 0.218,1.285 0.351,1.922 0.586,2.836 1.114,5.691 1.574,8.57 0.168,1.067 0.348,2.125 0.5,3.195 0.54,3.766 1.008,7.555 1.333,11.375 0.371,4.368 0.488,8.805 0.464,13.258 -0.004,0.649 0.012,1.293 0,1.946 -0.007,0.418 0.012,0.832 0,1.25 l 14.852,-1.036 0.801,-0.039 c 1.925,-0.105 23.113,-0.168 103.07,-0.281 18.203,-0.019 34.012,-0.043 42.594,-0.066 L 470.234,955.703 26.1719,511.641 c 10.9375,0.203 79.3201,1.363 118.5231,-0.993 42.696,-2.57 116.379,-14.398 157.543,-22.929 41.168,-8.531 77.965,-21.133 77.965,-21.133 0,0 -3.355,-5.961 -13.656,-16.742 -10.301,-10.785 -18.699,-16.481 -18.699,-16.481 0,0 -30.125,9.547 -78.278,18.215 -48.152,8.668 -87.636,15.09 -133.222,17.656 -41.3167,2.329 -121.6683,1.227 -136.348,1 L 470.234,0 l 447.914,447.91 -120.175,0.141 -27.293,1.578" style="fill:#ffffff;fill-opacity:1;fill-rule:nonzero;stroke:none" id="path38"></path></g></g></svg>