<svg width="212" height="34" viewBox="0 0 212 34" fill="none" xmlns="http://www.w3.org/2000/svg">
<g clip-path="url(#clip0_580_6198)">
<path d="M46.4349 13.1403C46.1678 13.3593 46.0339 13.6492 46.0339 14.0101C46.0339 14.3711 46.1971 14.6579 46.5238 14.871C46.8504 15.084 47.6044 15.3356 48.7861 15.6255C49.9678 15.9156 50.8853 16.3505 51.5386 16.9302C52.1912 17.51 52.5182 18.3563 52.5182 19.4686C52.5182 20.5811 52.0998 21.4836 51.2623 22.1759C50.4251 22.8681 49.3234 23.2141 47.9578 23.2141C45.9865 23.2141 44.2111 22.4863 42.6317 21.0308L44.2882 19.0071C45.6302 20.1786 46.8715 20.7645 48.0114 20.7645C48.5219 20.7645 48.9228 20.6552 49.2138 20.436C49.5048 20.2173 49.6504 19.9213 49.6504 19.5485C49.6504 19.1758 49.4958 18.8801 49.187 18.661C48.8782 18.4421 48.2667 18.2201 47.3524 17.9953C45.9033 17.6522 44.8433 17.2054 44.1725 16.6551C43.5014 16.1047 43.1661 15.2411 43.1661 14.0633C43.1661 12.8858 43.5906 11.9775 44.4396 11.3386C45.2885 10.6996 46.3485 10.3798 47.6194 10.3798C48.4505 10.3798 49.282 10.5218 50.1134 10.806C50.9445 11.0899 51.6689 11.4925 52.2865 12.0131L50.8792 14.0367C49.7986 13.22 48.6822 12.8119 47.5302 12.8119C47.0671 12.8119 46.7019 12.9214 46.4349 13.1403" fill="#104E9F"/>
<path d="M63.7939 14.3563L62.2266 17.9597H65.344L63.7939 14.3563ZM67.5528 23.0723L66.395 20.3918H61.1756L60.0178 23.0723H57.0604L62.4401 10.664H65.1301L70.5098 23.0723H67.5528" fill="#104E9F"/>
<path d="M75.8895 10.664H78.6685V23.0723H75.8895V10.664" fill="#104E9F"/>
<path d="M85.6686 23.0723V10.664H88.4475V20.6049H93.7562V23.0723H85.6686Z" fill="#104E9F"/>
<path d="M108.021 19.6424C108.021 18.6012 107.71 17.8062 107.097 17.2791C106.464 16.7346 105.5 16.3038 104.234 15.9984C102.898 15.6766 102.043 15.3804 101.62 15.0928C101.167 14.7849 100.937 14.3362 100.937 13.7592C100.937 13.1797 101.168 12.7387 101.625 12.4491C102.053 12.1774 102.604 12.0394 103.262 12.0394C103.903 12.0394 104.563 12.1524 105.222 12.3752C105.797 12.57 106.277 12.8165 106.65 13.1096L107.571 11.8129C107.039 11.3997 106.41 11.0711 105.699 10.8349C104.923 10.577 104.13 10.4464 103.344 10.4464C102.132 10.4464 101.104 10.7534 100.288 11.359C99.4779 11.9601 99.0837 12.7956 99.0837 13.9129C99.0837 15.0313 99.4275 15.8344 100.135 16.3682C100.497 16.6597 100.914 16.8964 101.378 17.0756C101.852 17.259 102.559 17.4635 103.479 17.6835C104.445 17.9152 105.112 18.1678 105.516 18.4559C105.949 18.764 106.168 19.1997 106.168 19.7509C106.168 20.3014 105.938 20.749 105.482 21.0811C105.045 21.3998 104.453 21.5613 103.725 21.5613C102.357 21.5613 101.021 21.0278 99.7521 19.9752L98.6503 21.2957C100.113 22.5411 101.801 23.1724 103.671 23.1724C104.975 23.1724 106.041 22.8399 106.837 22.184C107.634 21.5279 108.021 20.6966 108.021 19.6424" fill="#104E9F"/>
<path d="M121.693 17.0213C121.221 17.5181 120.383 17.7596 119.13 17.7596H116.45V12.3106H118.821C120.033 12.3106 120.906 12.4987 121.488 12.8857C122.087 13.2835 122.39 13.961 122.39 14.8993C122.39 15.8201 122.156 16.5342 121.693 17.0213ZM124.207 15.0712C124.207 13.6051 123.784 12.5091 122.949 11.8141C122.104 11.1106 120.728 10.754 118.857 10.754H114.688V23.0273H116.45V19.3163H118.894C120.706 19.3163 122.063 18.9709 122.926 18.2894C123.776 17.6187 124.207 16.5358 124.207 15.0712" fill="#104E9F"/>
<path d="M132.508 17.6327H138.594V16.1121H132.508V12.383H139.285V10.754H130.746V23.0273H139.502V21.3982H132.508V17.6327Z" fill="#104E9F"/>
<path d="M154.001 12.5252C154.516 12.7447 155.064 13.12 155.633 13.6424L156.746 12.4297C155.489 11.1135 153.917 10.4464 152.073 10.4464C150.166 10.4464 148.567 11.0616 147.32 12.275C146.074 13.4872 145.443 15.0252 145.443 16.8455C145.443 18.6664 146.062 20.192 147.283 21.3799C148.506 22.5694 150.069 23.1724 151.928 23.1724C153.725 23.1724 155.282 22.4885 156.561 21.1394L155.435 19.9887C154.89 20.48 154.358 20.8471 153.852 21.0818C153.296 21.3399 152.627 21.4708 151.864 21.4708C150.63 21.4708 149.549 21.0165 148.65 20.1207C147.751 19.2252 147.295 18.0958 147.295 16.7642C147.295 15.4312 147.756 14.3191 148.663 13.4584C149.567 12.6007 150.699 12.166 152.027 12.166C152.776 12.166 153.44 12.2868 154.001 12.5252" fill="#104E9F"/>
<path d="M165.025 10.754H163.263V23.0273H165.025V10.754Z" fill="#104E9F"/>
<path d="M174.751 18.5562L177.351 12.6814L179.95 18.5562H174.751ZM176.33 10.754L170.903 23.0273H172.775L174.047 20.149H180.654L181.925 23.0273H183.797L178.37 10.754H176.33Z" fill="#104E9F"/>
<path d="M191.438 10.754H189.675V23.0273H197.232V21.3801H191.438V10.754" fill="#104E9F"/>
<path d="M212.001 19.6424C212.001 18.6012 211.69 17.8062 211.078 17.2791C210.443 16.7346 209.481 16.3038 208.215 15.9984C206.878 15.6766 206.023 15.3804 205.6 15.0928C205.147 14.7848 204.917 14.336 204.917 13.7592C204.917 13.1797 205.148 12.7388 205.605 12.4491C206.033 12.1774 206.584 12.0394 207.242 12.0394C207.883 12.0394 208.543 12.1524 209.202 12.3752C209.777 12.57 210.256 12.8165 210.631 13.1096L211.552 11.8129C211.019 11.3995 210.39 11.0709 209.679 10.8349C208.903 10.577 208.11 10.4464 207.324 10.4464C206.112 10.4464 205.084 10.7534 204.268 11.359C203.458 11.9603 203.064 12.7956 203.064 13.9129C203.064 15.0309 203.408 15.8341 204.114 16.3682C204.477 16.6593 204.893 16.8961 205.358 17.0756C205.833 17.2591 206.54 17.4635 207.459 17.6835C208.426 17.9152 209.092 18.1678 209.497 18.4559C209.929 18.7641 210.149 19.1998 210.149 19.7509C210.149 20.3015 209.918 20.7491 209.462 21.0813C209.025 21.3998 208.434 21.5613 207.706 21.5613C206.337 21.5613 205.001 21.0278 203.732 19.9752L202.63 21.2957C204.093 22.5411 205.781 23.1724 207.651 23.1724C208.955 23.1724 210.02 22.8399 210.817 22.184C211.614 21.5281 212.001 20.6968 212.001 19.6424" fill="#104E9F"/>
<path d="M26.4379 17.0102C26.4066 17.3792 26.3409 17.7402 26.2422 18.0838C26.2212 18.1578 26.1984 18.2317 26.1772 18.2949L26.1569 18.352C26.1361 18.4116 26.1146 18.4709 26.0915 18.5304L26.0592 18.6092C26.04 18.6562 26.0204 18.7034 26.0011 18.7469L25.9624 18.8306C25.9406 18.8767 25.9199 18.9199 25.8982 18.9629L25.8552 19.0458C25.8329 19.0877 25.8099 19.1294 25.7865 19.1706L25.741 19.25C25.7154 19.2931 25.6886 19.3359 25.6603 19.3801L25.6155 19.45C25.583 19.4991 25.5488 19.5481 25.5099 19.6019L25.4861 19.6362C25.4394 19.6997 25.3917 19.7614 25.3508 19.8117L25.3095 19.8606C25.2706 19.9075 25.2313 19.9533 25.1967 19.9924L25.1362 20.0575C25.1026 20.0939 25.0681 20.1304 25.0345 20.1643L24.9743 20.2239C24.936 20.2613 24.9012 20.2946 24.862 20.3302L24.7963 20.3898C24.7601 20.4219 24.7228 20.4536 24.6703 20.4975L24.6157 20.5424C24.5761 20.5744 24.5346 20.6063 24.493 20.6375L24.4283 20.6861C24.3751 20.7256 24.32 20.7634 24.2576 20.8055L24.2357 20.8209C24.1678 20.8658 24.0999 20.9085 24.0392 20.9448L23.974 20.9825C23.9229 21.0123 23.8715 21.0419 23.8264 21.0662L23.7404 21.1111C23.6944 21.1351 23.6482 21.1587 23.5998 21.1822L23.5125 21.2232C23.4651 21.2453 23.417 21.2667 23.3727 21.2863L23.2813 21.3249C23.2318 21.3452 23.1824 21.3648 23.1337 21.3834L23.0419 21.4185C22.9877 21.438 22.9326 21.4565 22.876 21.4756L22.7982 21.5021C22.7228 21.526 22.6475 21.5484 22.5623 21.5723L22.5469 21.577C22.4608 21.6009 22.3743 21.6226 22.2983 21.6407L22.2071 21.6604C22.1466 21.6742 22.0852 21.6871 22.0304 21.6981L21.9218 21.7179C21.8646 21.7281 21.8074 21.7379 21.7527 21.7467L21.6391 21.7632C21.5836 21.771 21.5271 21.7784 21.471 21.7852L21.3553 21.798C21.2976 21.8041 21.239 21.8094 21.1816 21.8141L21.0672 21.8229C21.002 21.8276 20.9362 21.8307 20.8709 21.8337L20.7761 21.8379C20.677 21.8412 20.5777 21.8433 20.477 21.8433C19.042 21.8433 17.54 21.3303 16.4144 20.7565C16.5501 20.6147 16.7297 20.4178 16.8925 20.2093C17.0949 19.9498 17.2677 19.7048 17.3649 19.5639C17.5483 19.6488 17.7392 19.7322 17.9425 19.811C18.1498 19.8916 18.3359 19.9578 18.5138 20.0143C18.5793 20.0347 18.6447 20.0549 18.709 20.0737C18.8731 20.1213 19.0211 20.1604 19.1629 20.1932C19.7726 20.3333 20.3218 20.3713 20.8226 20.348L21.0578 20.3373L21.0622 20.3331C21.1143 20.3288 21.1669 20.3241 21.2207 20.3184L21.2731 20.3126C21.3744 20.3009 21.4748 20.2874 21.5929 20.2685C21.7027 20.2504 21.8039 20.2298 21.9052 20.2071L21.9664 20.1932C22.0629 20.1703 22.158 20.1452 22.2626 20.1142L22.2945 20.1041C22.3818 20.0774 22.4684 20.0481 22.5507 20.0177L22.577 20.0079C22.6787 19.9693 22.7653 19.9327 22.8525 19.8929L22.9016 19.8701C22.9874 19.8295 23.0703 19.7877 23.1463 19.7447L23.1729 19.7293C23.2501 19.6855 23.323 19.6403 23.3896 19.5963L23.4305 19.5696C23.5027 19.5207 23.5737 19.4682 23.6499 19.4084L23.6872 19.3778C23.7641 19.315 23.83 19.2574 23.8893 19.2007C23.9581 19.1342 24.0155 19.0739 24.0705 19.0125L24.1063 18.9723C24.1506 18.9216 24.1929 18.8687 24.236 18.8124L24.4482 18.503C24.5358 18.3869 24.5879 18.2554 24.6236 18.1641C24.6513 18.1039 24.6785 18.0436 24.7039 17.9784C24.8358 17.6347 24.9191 17.2666 24.9514 16.8845C24.9592 16.7951 24.9621 16.7053 24.9605 16.6156C24.9603 16.61 24.9595 16.6044 24.9594 16.5989C24.955 16.4247 24.9341 16.2506 24.8958 16.0793C24.876 15.9904 24.8515 15.9019 24.8227 15.8144L24.8104 15.7752C24.8054 15.7583 24.8002 15.741 24.7973 15.733L24.7831 15.6935C24.7475 15.6 24.7117 15.5187 24.6703 15.4345L24.6503 15.3946C24.6103 15.3165 24.5657 15.2388 24.519 15.1651L24.4611 15.0786C24.4587 15.0751 24.4566 15.0723 24.4541 15.0688L24.3176 14.8659C24.3176 14.8659 24.1772 14.7214 24.1182 14.6619C23.4726 14.0104 22.6009 13.6661 21.5974 13.6661C21.4942 13.6661 21.3885 13.67 21.286 13.6775C21.1898 13.6841 21.0958 13.695 21.0029 13.7078L20.9623 13.7133C20.7948 13.7381 20.6319 13.7768 20.4714 13.8226C20.3209 13.7712 19.9602 13.6381 19.5023 13.4044C19.0858 13.1918 18.8639 13.0333 18.7634 12.9532C18.8049 12.9276 18.8471 12.902 18.8851 12.8799L18.9562 12.8398C19.0059 12.8118 19.0571 12.7849 19.1057 12.7599L19.1779 12.7232C19.2287 12.698 19.2809 12.6741 19.3312 12.6512L19.4052 12.6176C19.4555 12.5959 19.5072 12.5753 19.5591 12.5547L19.6383 12.5231C19.6807 12.5072 19.7242 12.4926 19.772 12.4765L19.881 12.4391C19.9167 12.4273 19.9535 12.4172 19.9949 12.4054L20.2293 12.3425C20.3357 12.3166 20.4437 12.2936 20.5492 12.2742C20.6587 12.2542 20.7704 12.2371 20.8977 12.2211C20.9902 12.2103 21.0825 12.2015 21.1759 12.1945C21.2121 12.192 21.2476 12.1908 21.2836 12.1894L21.3338 12.1873C22.8257 12.1212 24.2056 12.6348 25.1794 13.617C25.231 13.6691 25.2804 13.7221 25.3243 13.7712L25.3727 13.8259C25.4073 13.8656 25.4402 13.9048 25.4693 13.9403L25.519 14.0021C25.5512 14.0431 25.5826 14.0842 25.6167 14.1312L25.6498 14.1758C25.6909 14.2335 25.7305 14.2918 25.7622 14.3413L25.7941 14.3926C25.8234 14.4396 25.8519 14.4867 25.8759 14.528L25.9093 14.5873C25.9372 14.6383 25.9608 14.6825 25.9825 14.7249L26.0149 14.7884C26.0418 14.8437 26.0678 14.8993 26.0941 14.9588L26.1037 14.9797C26.1318 15.0448 26.1575 15.1098 26.1782 15.1646L26.2036 15.2358C26.2202 15.2819 26.2365 15.3298 26.2506 15.3728L26.2726 15.4449C26.2872 15.4935 26.3013 15.5431 26.3143 15.5929L26.3291 15.6483C26.3457 15.7155 26.361 15.7835 26.3738 15.8493L26.4263 16.202C26.4564 16.4759 26.4602 16.7477 26.4379 17.0102V17.0102ZM16.2493 18.6382C15.8502 19.2521 15.4565 19.7478 15.0437 20.1554L14.9574 20.2387L14.9292 20.2654L14.6973 20.4728C14.6744 20.4921 14.6514 20.511 14.627 20.5306L13.9735 20.9927C13.95 21.0068 13.9255 21.0204 13.8992 21.0353L13.7786 21.1034C13.7512 21.1183 13.7231 21.1327 13.6934 21.1476L13.3574 21.3067C13.3277 21.3195 13.2978 21.3313 13.2634 21.3445L13.1371 21.3946C13.1056 21.4064 13.0733 21.4173 13.0385 21.4291L12.9059 21.4743C12.872 21.4852 12.8374 21.4947 12.7978 21.5061L12.6689 21.5437C12.6276 21.5547 12.5862 21.5642 12.5426 21.5744L12.419 21.6037C12.3699 21.6141 12.3202 21.6233 12.2663 21.633L12.1586 21.6533C12.088 21.6651 12.0146 21.6749 11.9348 21.6853L11.8905 21.6914C11.7989 21.7025 11.706 21.7115 11.6231 21.7177L11.5971 21.7188C11.4868 21.7266 11.3749 21.7302 11.2493 21.7311L11.2006 21.7329L11.1012 21.7304C11.0669 21.7299 11.032 21.7295 10.9996 21.7282C10.9397 21.7258 10.8811 21.7224 10.8245 21.7186L10.7274 21.712C10.6638 21.7062 10.6008 21.6992 10.5364 21.6914L10.4602 21.6824C10.3814 21.6718 10.3038 21.659 10.2151 21.6432L10.1982 21.6407C10.0212 21.6075 9.8444 21.5649 9.685 21.518L9.62684 21.4995C9.55808 21.4786 9.49004 21.4565 9.43441 21.4371L9.35352 21.4071C9.29508 21.3858 9.23721 21.3637 9.18769 21.3433L9.10279 21.307C9.04881 21.2835 8.99512 21.2599 8.94393 21.2356L8.85999 21.1944C8.81091 21.1701 8.76182 21.1448 8.71302 21.1183L8.62808 21.0716C8.58067 21.0448 8.53423 21.017 8.47579 20.9815L8.40746 20.9392C8.36269 20.9101 8.31806 20.8801 8.26869 20.8461L8.19282 20.7936C8.14945 20.7622 8.10636 20.7294 8.05688 20.6908L7.98869 20.6386C7.94253 20.6013 7.8979 20.5628 7.84882 20.52L7.79191 20.4708C7.729 20.4141 7.66739 20.3558 7.60852 20.2964C7.55664 20.244 7.50616 20.1901 7.46364 20.143L7.41202 20.0835C7.37857 20.0452 7.34608 20.007 7.31163 19.9647L7.26351 19.9047C7.23395 19.867 7.20453 19.8281 7.17483 19.7872L7.13409 19.7317C7.09489 19.6766 7.05669 19.6207 7.01639 19.5582L7.00857 19.5459C6.96969 19.4847 6.93606 19.428 6.90775 19.3788L6.87012 19.3103C6.84681 19.2682 6.82339 19.225 6.80304 19.1844L6.76748 19.1134C6.74585 19.0691 6.72521 19.0242 6.70444 18.9776L6.67809 18.9187C6.6778 18.9181 6.67752 18.9174 6.67723 18.9167C6.8969 18.9523 7.22181 19.0011 7.60209 19.0443C8.05477 19.0959 8.3945 19.1302 8.57732 19.1481C8.6077 19.182 8.64008 19.2217 8.66935 19.2513C9.31503 19.9024 10.1866 20.2468 11.1899 20.2468C11.2933 20.2468 11.3988 20.2431 11.5034 20.2353C11.6015 20.2282 11.6959 20.2174 11.7891 20.2046L11.8493 20.1959C11.9393 20.1823 12.027 20.1665 12.1238 20.145L12.1553 20.1374C12.2322 20.1197 12.3083 20.0994 12.3818 20.0778L12.4273 20.0643C12.5084 20.039 12.5876 20.0114 12.6706 19.9793L12.706 19.9651C12.7134 19.9621 12.7195 19.9593 12.7269 19.9564L12.7427 19.9618L12.9718 19.8471C13.0314 19.8174 13.0982 19.7813 13.1665 19.7421L13.2082 19.7178C13.2778 19.6766 13.3457 19.6338 13.4066 19.5923L13.4369 19.5714C13.4983 19.5286 13.5578 19.4851 13.6158 19.4398L13.6656 19.4006C13.9377 19.1824 14.1934 18.9212 14.4538 18.5959C14.6421 18.3606 14.8327 18.0926 15.0339 17.7783C15.0887 17.6923 15.1433 17.604 15.1981 17.5148C15.1981 17.5148 15.5977 16.8418 15.6257 16.794L15.9414 16.2551C16.0789 16.3706 16.2814 16.5297 16.527 16.6875C16.8365 16.8867 17.0702 17.0091 17.1917 17.069C17.1808 17.0875 17.1698 17.1063 17.1591 17.1249L16.7556 17.8149L16.587 18.0978C16.5479 18.163 16.5078 18.229 16.4629 18.3017L16.4258 18.3616C16.3745 18.4434 16.3224 18.5264 16.2706 18.6059L16.2493 18.6382ZM11.9014 13.5681C9.7207 13.6555 8.7324 14.8831 8.7324 14.8831C8.7324 14.8831 8.34594 14.8224 7.94488 14.7598C7.54368 14.6968 7.06494 14.6334 7.06494 14.6334C7.06494 14.6334 7.37171 14.0973 7.83596 13.6576C8.30007 13.2179 8.98773 12.7268 9.90937 12.4377C10.8309 12.1487 12.105 12.0131 13.0448 12.1159C13.9845 12.2186 15.205 12.5613 16.2995 13.0923C17.3941 13.6233 17.777 14.0061 18.2497 14.2952C18.9221 14.7064 19.6631 15.0281 20.557 15.2965C21.4511 15.5648 23.3995 15.9395 23.3995 15.9395C23.3995 15.9395 23.5253 16.21 23.5283 16.6998C23.5312 17.1892 23.3861 17.4455 23.3861 17.4455C23.3861 17.4455 21.9725 17.2151 20.9295 16.9524C19.8867 16.6898 18.3108 16.1074 17.4226 15.5705C16.4622 14.9902 16.1277 14.6399 15.2852 14.2687C14.2088 13.7942 13.1279 13.5189 11.9014 13.5681V13.5681ZM27.5136 18.004C27.5185 17.9815 27.5214 17.9583 27.5262 17.9356C27.5471 17.8347 27.5659 17.7332 27.5823 17.6307C27.5883 17.5928 27.5948 17.5551 27.6002 17.5171C27.6195 17.3831 27.6362 17.2483 27.6478 17.1124C27.661 16.957 27.6652 16.7991 27.6643 16.6407C27.6642 16.6176 27.6648 16.5947 27.6643 16.5715C27.6641 16.5566 27.6648 16.5419 27.6643 16.527L28.1946 16.5639L28.2232 16.5653C28.2919 16.569 29.0483 16.5712 31.9028 16.5753C32.5527 16.5759 33.1171 16.5768 33.4234 16.5776L16.7876 -0.000105047L0.934349 15.7979C1.32482 15.7906 3.76611 15.7494 5.16568 15.8332C6.68994 15.9246 9.32046 16.3454 10.79 16.6489C12.2597 16.9524 13.5734 17.4007 13.5734 17.4007C13.5734 17.4007 13.4536 17.6128 13.0859 17.9963C12.7181 18.38 12.4183 18.5827 12.4183 18.5827C12.4183 18.5827 11.3429 18.243 9.62377 17.9347C7.90472 17.6263 6.49513 17.3978 4.86768 17.3065C3.39266 17.2237 0.524072 17.2629 0 17.2709L16.7876 34L32.7783 18.0651L28.488 18.0601L27.5136 18.004Z" fill="#104E9F"/>
</g>
<defs>
<clipPath id="clip0_580_6198">
<rect width="212" height="34" fill="white"/>
</clipPath>
</defs>
</svg>
