<svg width="16" height="18" viewBox="0 0 16 18" fill="none" xmlns="http://www.w3.org/2000/svg">
<path d="M8.99225 0.5C5.12189 0.5 1.98398 3.7534 1.98398 7.76691C1.98398 9.19295 2.37996 10.5232 3.06436 11.6456C3.05933 11.6479 3.0544 11.6499 3.04936 11.6523L0 14.8139L2.59034 17.5L5.74952 14.2234C5.74858 14.2188 5.74731 14.2142 5.74632 14.2096C6.71676 14.7364 7.82101 15.0344 8.99227 15.0344C12.8627 15.0344 16 11.7804 16 7.76693C16 3.7534 12.8626 0.5 8.99225 0.5ZM8.99225 3.72826C11.1431 3.72826 12.8863 5.53648 12.8863 7.76691C12.8863 9.99733 11.1431 11.8056 8.99225 11.8056C6.84138 11.8056 5.09764 9.99733 5.09764 7.76691C5.09764 5.53648 6.84136 3.72826 8.99225 3.72826Z" fill="#555555"/>
</svg>
