<svg width="20" height="21" viewBox="0 0 20 21" fill="none" xmlns="http://www.w3.org/2000/svg">
<path d="M0.00401338 20.0237L1.35601 15.2923C0.465151 13.8378 -0.00289063 12.1837 1.34322e-05 10.4999C1.34322e-05 5.23988 4.47701 0.976074 10 0.976074C15.523 0.976074 20 5.23988 20 10.4999C20 15.7599 15.523 20.0237 10 20.0237C8.23279 20.0264 6.49667 19.581 4.97001 18.7332L0.00401338 20.0237ZM6.39101 6.03131C6.26187 6.03895 6.13568 6.07134 6.02001 6.12655C5.91153 6.18505 5.81251 6.25819 5.72601 6.34369C5.60601 6.45131 5.53801 6.54464 5.46501 6.63512C5.09542 7.09321 4.89662 7.65552 4.90001 8.23321C4.90201 8.69988 5.03001 9.15416 5.23001 9.57893C5.63901 10.438 6.31201 11.3475 7.20101 12.1904C7.41501 12.3932 7.62401 12.597 7.84901 12.7865C8.9524 13.7117 10.2673 14.379 11.689 14.7351L12.258 14.818C12.443 14.8275 12.628 14.8142 12.814 14.8056C13.1052 14.7913 13.3896 14.7162 13.647 14.5856C13.778 14.5213 13.9058 14.4514 14.03 14.3761C14.03 14.3761 14.073 14.3494 14.155 14.2903C14.29 14.1951 14.373 14.1275 14.485 14.0161C14.568 13.9342 14.64 13.838 14.695 13.7284C14.773 13.5732 14.851 13.277 14.883 13.0304C14.907 12.8418 14.9 12.7389 14.897 12.6751C14.893 12.5732 14.804 12.4675 14.707 12.4227L14.125 12.1742C14.125 12.1742 13.255 11.8132 12.724 11.5827C12.668 11.5595 12.608 11.5463 12.547 11.5437C12.4786 11.537 12.4095 11.5443 12.3443 11.5652C12.2791 11.5861 12.2193 11.62 12.169 11.6646V11.6627C12.164 11.6627 12.097 11.717 11.374 12.5513C11.3325 12.6044 11.2753 12.6445 11.2098 12.6666C11.1443 12.6886 11.0733 12.6916 11.006 12.6751C10.9408 12.6585 10.877 12.6375 10.815 12.6123C10.691 12.5627 10.648 12.5437 10.563 12.5084L10.558 12.5065C9.98592 12.2687 9.45623 11.9473 8.98801 11.5542C8.86201 11.4494 8.74501 11.3351 8.62501 11.2246C8.23159 10.8658 7.88872 10.4599 7.60501 10.017L7.54601 9.92654C7.50363 9.86575 7.46937 9.80017 7.44401 9.73131C7.40601 9.59131 7.50501 9.47893 7.50501 9.47893C7.50501 9.47893 7.74801 9.22559 7.86101 9.08845C7.9551 8.97447 8.04288 8.8559 8.12401 8.73321C8.24201 8.55226 8.27901 8.36655 8.21701 8.22274C7.93701 7.57131 7.64701 6.92274 7.34901 6.27893C7.29001 6.15131 7.11501 6.05988 6.95601 6.04178C6.90201 6.03607 6.84801 6.03036 6.79401 6.02655C6.65972 6.02019 6.52514 6.02146 6.39101 6.03036V6.03131Z" fill="white"/>
</svg>
