<svg width="45" height="41" viewBox="0 0 45 41" fill="none" xmlns="http://www.w3.org/2000/svg">
<path d="M41.2594 24.0236L44.9526 7.85169C45.2192 6.68405 44.3274 5.57215 43.1242 5.57215H12.4381L11.722 2.0882C11.5436 1.21982 10.7758 0.596191 9.88508 0.596191H1.875C0.839453 0.596191 0 1.43161 0 2.46218V3.70617C0 4.73674 0.839453 5.57215 1.875 5.57215H7.33461L12.8227 32.274C11.5098 33.0255 10.625 34.4344 10.625 36.0499C10.625 38.4546 12.5838 40.4039 15 40.4039C17.4163 40.4039 19.375 38.4546 19.375 36.0499C19.375 34.8313 18.8713 33.7303 18.0606 32.9399H34.4393C33.6287 33.7303 33.125 34.8313 33.125 36.0499C33.125 38.4546 35.0838 40.4039 37.5 40.4039C39.9163 40.4039 41.875 38.4546 41.875 36.0499C41.875 34.3261 40.8681 32.8364 39.4079 32.131L39.8389 30.2435C40.1056 29.0759 39.2138 27.964 38.0106 27.964H17.0404L16.5291 25.476H39.431C40.3065 25.476 41.0654 24.8731 41.2594 24.0236Z" fill="#104E9F"/>
</svg>
